<?xml version="1.0" encoding="UTF-8"?>
<svg id="Layer_1" data-name="Layer 1" xmlns="http://www.w3.org/2000/svg" viewBox="0 0 426.83 105.9">
  <defs>
    <style>
      .cls-1 {
        fill: #2c296a;
        stroke-width: 0px;
      }
    </style>
  </defs>
  <path class="cls-1" d="m43.52,0h366.04c.39.08.78.17,1.17.24,5.93.97,10.73,3.76,13.61,9.11,1.19,2.2,1.68,4.77,2.49,7.18v5.75c-.31,1.36-.59,2.72-.94,4.06-4.48,17.43-9.05,34.83-13.42,52.29-2.11,8.41-6.54,15.18-13.4,20.38-5.51,4.17-11.64,6.87-18.68,6.88-120.04.02-240.07.02-360.11-.01-8.33,0-14.33-3.99-17.86-11.49-2.95-6.27-2.98-12.82-1.28-19.43,4.21-16.34,8.25-32.73,12.71-49C17.43,12.89,26.23,4.69,39.17.87c1.42-.43,2.9-.59,4.35-.87Zm247.04,83.86c-1.51,0-2.62.01-3.74,0-2.22-.01-3.03-1.06-2.47-3.23.34-1.31.74-2.61,1.11-3.92.51-1.8,1.41-2.52,3.26-2.55,1.8-.03,3.6-.05,5.4.01,1.02.03,1.48-.34,1.74-1.34,3.76-14.77,7.56-29.53,11.34-44.3.91-3.56.91-7.12-.3-10.62-2.28-6.55-8.19-10.52-15.72-10.52-80.91-.01-161.81-.01-242.72,0-12.55,0-24.59,9.43-27.71,21.56-3.64,14.14-7.3,28.28-10.96,42.42-1.02,3.94-2.16,7.86-1.75,12.01.47,4.69,2.24,8.71,6.06,11.65,3.28,2.52,7.09,3.38,11.15,3.38,78.75,0,157.5,0,236.25-.01.84,0,1.68-.01,2.51-.1,10.09-1.12,18.47-5.61,25.36-12.97.34-.36.63-.77,1.19-1.47Zm80.06-13.17c-.17-.64-.3-1-.36-1.38-.27-1.69-.52-3.39-.79-5.08-1.3-8.39-2.62-16.78-3.89-25.18-.16-1.04-.62-1.4-1.66-1.38-2.84.05-5.67.05-8.51,0-1.1-.02-1.47.28-1.28,1.46,1.93,12.01,3.77,24.03,5.72,36.03.38,2.34,1,4.66,1.76,6.91.27.79,1.14,1.67,1.94,1.94,2.54.87,5.17.9,7.72-.13,2.57-1.03,3.97-3.27,5.45-5.37,9.27-13.14,18.51-26.31,27.75-39.47.23-.33.41-.7.73-1.25-.69-.05-1.11-.1-1.54-.1-2.84-.01-5.67.04-8.51-.02-1.08-.02-1.75.36-2.36,1.25-6.92,10.01-13.88,20-20.83,29.99-.38.53-.79,1.05-1.34,1.78Zm-37.95-33.13c.12-.59.18-1.06.3-1.51.76-2.73,1.52-5.46,2.33-8.17.29-.97.03-1.29-.98-1.27-2.48.05-4.96.01-7.44.01q-1.92,0-2.42,1.81c-3.65,13.4-7.36,26.78-10.91,40.2-.58,2.2-.72,4.59-.59,6.87.14,2.56,1.5,4.68,3.71,6.11s4.72,2.03,7.29,2.08c5.55.11,11.11.03,16.67.05.82,0,1.23-.32,1.44-1.1.58-2.24,1.22-4.47,1.82-6.7.37-1.37.32-1.44-1.1-1.44-4.52-.01-9.04.04-13.55-.03-1.34-.02-2.7-.26-4.02-.53-1.37-.28-1.82-1.04-1.61-2.45.14-.95.24-1.9.49-2.82,1.81-6.78,3.68-13.56,5.46-20.35.28-1.08.74-1.47,1.88-1.45,4.84.06,9.67.03,14.51.02,1.67,0,1.69-.02,1.43-1.7-.32-2.05-.69-4.09-.97-6.15-.14-1.04-.63-1.4-1.67-1.38-3.48.05-6.96.02-10.43.01-.51.01-1.01-.06-1.64-.11Zm-41.35,45.94c.04.12.08.23.13.35,1.96-.1,3.94-.1,5.89-.35,1.08-.14,1.77-1.03,2.06-2.11.27-1,.5-2.01.73-3.02.84-3.53.35-4.12-3.24-4.1-.94,0-1.26.4-1.59,1.21-.97,2.34-2.08,4.63-3.17,6.92-.2.4-.54.73-.81,1.1Z"/>
  <path class="cls-1" d="m205.52,83.66c.09-.48.15-.91.26-1.33,2.27-8.44,4.57-16.87,6.79-25.32.48-1.83.75-3.73,1.04-5.61.38-2.47-2-4.51-3.98-4.94-5.31-1.16-11.22,2-12.81,7.23-2.53,8.32-4.8,16.71-7.18,25.07-.39,1.38-.73,2.78-1.19,4.14-.12.37-.58.89-.89.89-3.35.06-6.7.04-10.22.04.08-.54.1-.96.21-1.35,2.36-8.62,4.75-17.23,7.09-25.85.4-1.46.7-2.95.92-4.44.39-2.64-1.49-5.19-4.13-5.72-4.89-.98-9.98,1.36-12.21,5.74-.68,1.34-1.14,2.81-1.54,4.27-2.38,8.65-4.73,17.32-7.04,25.99-.27,1.03-.71,1.43-1.8,1.4-2.72-.07-5.44-.02-8.15-.03-.42,0-.85-.06-1.4-.11.13-.64.2-1.14.33-1.63,2.14-8.02,4.19-16.06,6.49-24.03,1-3.46,2.29-6.89,3.88-10.12,1.69-3.44,4.61-5.88,7.97-7.71,2.77-1.51,5.62-2.84,8.8-3.31,5.49-.81,10.69-.4,15.18,3.32.15.13.32.24.47.38.57.5,1.1,1.36,1.71,1.41.6.05,1.28-.7,1.9-1.13,5.9-4.02,12.41-5.37,19.27-3.6,4.51,1.17,8.35,3.77,9.34,8.77.43,2.16.39,4.6-.14,6.74-2.47,10.03-5.17,20-7.83,29.97-.11.41-.68.99-1.04,1-3.2.07-6.39.03-9.59.02-.1.01-.22-.05-.51-.15Z"/>
  <path class="cls-1" d="m116.73,85.02c-4.7-.06-9.12-1.04-13.04-3.59-5.5-3.58-8.49-8.65-8.39-15.31.08-5.23,1.89-9.94,4.8-14.19,1.96-2.86,4.44-5.28,7.25-7.38,2.83-2.11,5.77-3.99,9.04-5.32,5.06-2.06,10.3-2.91,15.8-2.5,4.47.33,8.53,1.64,12.08,4.35,3.38,2.58,5.68,5.95,6.51,10.15,1.44,7.25-.97,13.59-5.2,19.26-5.25,7.04-12.46,11.33-20.91,13.48-2.58.64-5.3.71-7.94,1.05Zm2.92-9.76c.88-.1,2.46-.12,3.97-.47,8.12-1.9,14.46-7.55,15.93-16.35.87-5.22-1.58-9.29-5.74-11.05-3.88-1.64-7.95-1.47-12.01-.45-3.45.87-6.42,2.59-9,5.02-4.46,4.21-6.64,9.32-5.85,15.46.35,2.73,2.09,4.68,4.4,6.09,2.35,1.43,4.96,1.68,8.3,1.75Z"/>
  <path class="cls-1" d="m248.24,85c-4.66-.04-9.01-1.07-12.94-3.54-4.53-2.84-7.29-6.92-8.27-12.19-.78-4.21.27-8.15,1.79-12.01,1.12-2.85,2.64-5.46,4.72-7.72,1.21-1.32,2.42-2.66,3.8-3.8,4.22-3.48,8.87-6.27,14.17-7.79,3.93-1.13,7.96-1.55,12.08-1.24,3.4.26,6.61,1.03,9.6,2.67,7.25,4,10.72,11.26,9.18,19.45-1.32,6.99-4.98,12.62-10.43,17.13-4.71,3.9-9.98,6.76-15.98,8.08-2.54.54-5.15.65-7.72.96Zm10.4-38.88c-1.46.21-3.25.26-4.92.74-8.22,2.39-13.65,7.46-15.28,16.14-1.08,5.74,1.86,10.47,7.59,11.74,4.91,1.09,9.67.5,14.21-1.75,3.19-1.58,5.73-3.8,7.77-6.72,2.04-2.91,3.06-6.17,3.25-9.62.18-3.22-1.1-5.96-3.75-7.99-2.54-1.94-5.53-2.26-8.87-2.54Z"/>
  <path class="cls-1" d="m24.31,83.75c.41-1.53.77-2.91,1.14-4.29.36-1.35.76-2.69,1.08-4.05.2-.85.66-1.16,1.52-1.15,2.88.03,5.76.01,8.63.01,5.64,0,11.27.05,16.91-.04,1.36-.02,2.78-.3,4.05-.77,1.32-.49,1.98-1.68,1.96-3.14-.02-1.48-1.07-2.09-2.25-2.46-3.95-1.26-7.93-2.42-11.88-3.69-3.19-1.03-6.42-1.98-9.07-4.18-2.78-2.3-3.68-6.46-2.91-9.88,1.65-7.36,10.23-12.2,17.34-12.34,8.43-.16,16.86-.15,25.29-.21.43,0,.86.05,1.46.09-.11.57-.18,1.03-.3,1.47-.58,2.12-1.25,4.21-1.73,6.35-.27,1.21-.84,1.59-2.05,1.58-7.28-.05-14.55-.05-21.83,0-1.3.01-2.63.23-3.89.56-.77.2-1.57.66-2.13,1.22-1.27,1.28-1.02,3.12.61,3.87,1.73.79,3.57,1.36,5.4,1.91,3.55,1.07,7.16,1.97,10.68,3.11,2.63.85,5.12,2.08,6.92,4.3,2.16,2.66,2.61,5.69,1.69,8.91-1.65,5.77-5.55,9.42-11.06,11.54-3.01,1.16-6.13,1.38-9.3,1.38-8.15-.01-16.31,0-24.46-.01-.54.02-1.08-.04-1.82-.09Z"/>
  <path class="cls-1" d="m102.8,17.28c-.14.68-.22,1.19-.36,1.68-5.79,21.16-11.59,42.31-17.35,63.48-.29,1.07-.73,1.49-1.88,1.46-2.67-.08-5.35-.02-8.03-.03-.43,0-.86-.06-1.42-.1.12-.58.18-1.04.3-1.49,5.81-21.24,11.62-42.47,17.41-63.71.27-1,.7-1.45,1.8-1.43,2.68.07,5.35.02,8.03.03.43-.01.86.05,1.5.11Z"/>
</svg>